<svg width="171" height="33" viewBox="0 0 171 33" fill="none" xmlns="http://www.w3.org/2000/svg">
<g clip-path="url(#clip0_3_202)">
<path d="M1.17927 11.4551C1.7855 10.1862 2.73455 9.11316 3.91862 8.35788C5.07587 7.6347 6.41555 7.25897 7.77914 7.27514C8.88726 7.25007 9.98393 7.50433 10.9685 8.01462C11.8363 8.46644 12.5669 9.14394 13.0837 9.97611V7.52229H18.3667V24.7971H13.0837V22.3511C12.5469 23.177 11.8052 23.8488 10.9313 24.3008C9.94544 24.8137 8.84655 25.0693 7.7361 25.0442C6.38048 25.0578 5.05014 24.6762 3.90688 23.9458C2.7212 23.1796 1.77247 22.0967 1.16753 20.8192C0.498349 19.4671 0.163757 17.9038 0.163757 16.1293C0.163757 14.3548 0.502263 12.7967 1.17927 11.4551ZM11.988 13.0243C11.6424 12.6644 11.2282 12.3778 10.7699 12.1816C10.3116 11.9853 9.81872 11.8834 9.32041 11.882C8.8221 11.8805 8.32858 11.9795 7.86919 12.173C7.4098 12.3666 6.9939 12.6507 6.64623 13.0086C5.91443 13.7618 5.54853 14.7987 5.54853 16.1195C5.54853 17.4402 5.91443 18.4863 6.64623 19.2578C6.98861 19.6232 7.40179 19.9147 7.86046 20.1144C8.31914 20.3141 8.81365 20.4179 9.31372 20.4194C9.81379 20.4209 10.3089 20.32 10.7687 20.123C11.2286 19.9259 11.6434 19.6369 11.988 19.2735C12.7171 18.5112 13.0824 17.469 13.0837 16.1469C13.085 14.8249 12.7198 13.7873 11.988 13.0341V13.0243Z" fill="white"/>
<path d="M37.5265 9.30332C38.7318 10.611 39.3338 12.4116 39.3325 14.7052V24.7971H34.0827V15.4173C34.0827 14.2626 33.7847 13.3649 33.1885 12.7241C32.5924 12.0834 31.7895 11.7637 30.7799 11.765C29.7702 11.765 28.9667 12.0847 28.3692 12.7241C27.7718 13.3636 27.4737 14.2613 27.475 15.4173V24.7971H22.192V7.52229H27.475V9.8133C28.0306 9.03237 28.7781 8.40871 29.645 8.00285C30.5992 7.54866 31.6451 7.32112 32.7013 7.33791C34.7076 7.33791 36.316 7.99304 37.5265 9.30332Z" fill="white"/>
<path d="M60.6114 7.52229L49.7988 33H44.1244L48.0769 24.2086L41.0622 7.52229H46.9616L50.9454 18.3261L54.8979 7.52229H60.6114Z" fill="white"/>
<path d="M62.7245 24.2243C62.4417 23.9691 62.2168 23.6559 62.0652 23.306C61.9137 22.9561 61.8389 22.5776 61.846 22.1961C61.8379 21.8079 61.912 21.4224 62.0634 21.065C62.2149 20.7077 62.4402 20.3865 62.7245 20.1229C63.3412 19.5544 64.1573 19.254 64.9943 19.2873C65.8219 19.2578 66.6275 19.5582 67.2347 20.1229C67.519 20.3865 67.7443 20.7077 67.8958 21.065C68.0472 21.4224 68.1213 21.8079 68.1132 22.1961C68.1207 22.5776 68.0461 22.9563 67.8945 23.3062C67.7429 23.6562 67.5179 23.9694 67.2347 24.2243C66.6234 24.7805 65.8193 25.0748 64.9943 25.0442C64.16 25.0781 63.3455 24.7839 62.7245 24.2243Z" fill="white"/>
<path d="M98.3243 9.28763C99.5909 10.5887 100.224 12.3946 100.222 14.7052V24.7971H94.9804V15.4173C94.9804 14.3031 94.6875 13.4414 94.1018 12.832C93.5161 12.2227 92.7061 11.918 91.6716 11.918C90.6405 11.918 89.8343 12.224 89.2473 12.832C88.6603 13.4401 88.3668 14.3031 88.3668 15.4173V24.7971H83.1229V15.4173C83.1229 14.3031 82.8294 13.4414 82.2424 12.832C81.6554 12.2227 80.8473 11.918 79.8181 11.918C78.7889 11.918 77.9808 12.2227 77.3938 12.832C76.8068 13.4414 76.5133 14.3031 76.5133 15.4173V24.7971H71.2302V7.52229H76.5133V9.68973C77.0649 8.95513 77.786 8.36554 78.6147 7.97147C79.5316 7.53739 80.5359 7.32061 81.5497 7.33791C82.7581 7.31713 83.9519 7.60466 85.0189 8.1735C86.0306 8.72292 86.8628 9.55309 87.4159 10.5646C88.0267 9.60206 88.8638 8.8046 89.8539 8.24216C90.8759 7.6462 92.039 7.3366 93.2213 7.34576C95.3619 7.34053 97.0629 7.98782 98.3243 9.28763Z" fill="white"/>
<path d="M120.087 17.4297H108.137C108.217 18.5027 108.564 19.3226 109.17 19.8894C109.776 20.4574 110.581 20.7632 111.411 20.7407C112.728 20.7407 113.641 20.1837 114.15 19.0695H119.771C119.486 20.1962 118.951 21.244 118.206 22.1353C117.439 23.0545 116.472 23.7852 115.379 24.2714C114.183 24.8004 112.888 25.064 111.581 25.0442C110.013 25.0717 108.465 24.6991 107.08 23.9615C105.776 23.2502 104.706 22.1751 103.999 20.8663C103.258 19.5246 102.887 17.9554 102.887 16.1587C102.887 14.362 103.253 12.7928 103.983 11.4511C104.683 10.1402 105.751 9.06349 107.055 8.35396C108.452 7.61268 110.014 7.24007 111.595 7.27122C113.142 7.2421 114.671 7.60437 116.042 8.32454C117.324 9.01158 118.381 10.0559 119.085 11.3315C119.815 12.63 120.18 14.1469 120.18 15.8821C120.179 16.3994 120.148 16.9161 120.087 17.4297ZM114.776 14.4875C114.793 14.0812 114.718 13.6764 114.557 13.3029C114.397 12.9295 114.155 12.5969 113.849 12.3299C113.204 11.7823 112.379 11.4949 111.534 11.5237C110.717 11.5024 109.92 11.7815 109.293 12.3083C108.687 12.8248 108.311 13.5571 108.166 14.5052L114.776 14.4875Z" fill="white"/>
<path d="M122.914 11.4551C123.519 10.1856 124.468 9.11235 125.653 8.35788C126.81 7.6347 128.15 7.25897 129.514 7.27514C130.59 7.26214 131.654 7.50621 132.617 7.98716C133.509 8.42197 134.271 9.08422 134.826 9.90745V1.88891H140.109V24.7971H134.826V22.3197C134.312 23.1603 133.578 23.8435 132.703 24.2949C131.716 24.8075 130.617 25.0632 129.506 25.0383C128.14 25.0552 126.799 24.6735 125.645 23.9399C124.459 23.1744 123.51 22.0914 122.906 20.8133C122.237 19.4612 121.902 17.8979 121.902 16.1234C121.902 14.3489 122.239 12.7928 122.914 11.4551ZM133.721 13.0243C133.375 12.6644 132.961 12.3778 132.503 12.1816C132.044 11.9853 131.551 11.8834 131.053 11.882C130.555 11.8805 130.061 11.9795 129.602 12.173C129.142 12.3666 128.727 12.6507 128.379 13.0086C127.647 13.7618 127.282 14.7987 127.283 16.1195C127.284 17.4402 127.65 18.4863 128.379 19.2578C128.721 19.6232 129.134 19.9147 129.593 20.1144C130.052 20.3141 130.546 20.4179 131.046 20.4194C131.546 20.4209 132.042 20.32 132.501 20.123C132.961 19.9259 133.376 19.6369 133.721 19.2735C134.452 18.5112 134.818 17.469 134.818 16.1469C134.818 14.8249 134.452 13.7873 133.721 13.0341V13.0243Z" fill="white"/>
<path d="M144.306 4.90763C144.023 4.65269 143.798 4.33961 143.646 3.98965C143.494 3.63969 143.419 3.26105 143.426 2.87946C143.417 2.49294 143.49 2.10896 143.642 1.7536C143.794 1.39823 144.021 1.07979 144.306 0.819897C144.928 0.260854 145.742 -0.0332823 146.576 -3.00887e-06C147.4 -0.0296167 148.203 0.264576 148.814 0.819897C149.1 1.07979 149.326 1.39823 149.478 1.7536C149.63 2.10896 149.704 2.49294 149.695 2.87946C149.702 3.26105 149.627 3.63969 149.475 3.98965C149.323 4.33961 149.098 4.65269 148.814 4.90763C148.204 5.46368 147.4 5.75798 146.576 5.72753C145.742 5.76186 144.927 5.46758 144.306 4.90763ZM149.198 7.52229V24.7971H143.915V7.52229H149.198Z" fill="white"/>
<path d="M152.992 11.4551C153.597 10.1856 154.547 9.11235 155.731 8.35788C156.889 7.6347 158.228 7.25897 159.592 7.27515C160.7 7.25041 161.796 7.50465 162.781 8.01462C163.649 8.467 164.379 9.14437 164.896 9.97611V7.52229H170.179V24.7971H164.896V22.3511C164.359 23.1766 163.618 23.8484 162.744 24.3008C161.757 24.8136 160.658 25.0692 159.547 25.0442C158.191 25.0576 156.861 24.676 155.718 23.9458C154.531 23.1803 153.582 22.0972 152.978 20.8192C152.309 19.4671 151.974 17.9038 151.974 16.1293C151.974 14.3548 152.314 12.7967 152.992 11.4551ZM163.799 13.0243C163.453 12.6644 163.039 12.3778 162.581 12.1816C162.122 11.9853 161.629 11.8835 161.131 11.882C160.633 11.8805 160.139 11.9795 159.68 12.173C159.221 12.3666 158.805 12.6507 158.457 13.0086C157.726 13.7618 157.361 14.7987 157.361 16.1195C157.361 17.4402 157.726 18.4863 158.457 19.2578C158.799 19.6232 159.213 19.9147 159.671 20.1144C160.13 20.3141 160.624 20.4179 161.124 20.4194C161.625 20.4209 162.12 20.32 162.579 20.123C163.039 19.9259 163.454 19.6369 163.799 19.2735C164.53 18.5112 164.896 17.469 164.896 16.1469C164.896 14.8249 164.53 13.7873 163.799 13.0341V13.0243Z" fill="white"/>
</g>
<defs>
<clipPath id="clip0_3_202">
<rect width="170" height="33" fill="white" transform="translate(0.175476)"/>
</clipPath>
</defs>
</svg>
