<svg width="21" height="15" viewBox="0 0 21 15" fill="none" xmlns="http://www.w3.org/2000/svg">
<path d="M0.255615 2.00532C0.323605 1.68738 0.416051 1.3802 0.623934 1.11901C1.0035 0.6421 1.50438 0.42737 2.10504 0.428837C2.75607 0.428837 3.40711 0.428837 4.05766 0.428837C8.81564 0.428837 13.5735 0.428022 18.3311 0.426392C18.9616 0.426392 19.4923 0.615686 19.8885 1.12194C20.1308 1.43281 20.2596 1.81716 20.2534 2.21125C20.2563 5.59019 20.2563 8.96881 20.2534 12.3471C20.251 13.3352 19.5515 14.0527 18.5669 14.1217C18.4955 14.1266 18.4236 14.1295 18.3521 14.1295C12.9563 14.1295 7.56068 14.1303 2.1652 14.132C1.52541 14.132 0.974644 13.9397 0.610727 13.4027C0.441976 13.1537 0.372029 12.8387 0.257083 12.5535L0.255615 2.00532ZM1.45302 12.4816C1.54644 12.8323 1.73965 12.9575 2.16911 12.9575C7.55808 12.9575 12.9469 12.9575 18.3355 12.9575C18.426 12.9575 18.5312 12.9752 18.6045 12.9365C18.7499 12.8605 18.8836 12.7642 19.0017 12.6504C19.0873 12.5672 19.058 12.4777 18.9435 12.4019C16.7913 10.9746 14.6417 9.54387 12.4948 8.10972C12.4013 8.04761 12.3421 8.05201 12.2605 8.12538C12.0912 8.2775 11.9141 8.42179 11.7361 8.5656C10.8532 9.26946 9.81087 9.3037 8.89081 8.64875C8.62765 8.46092 8.38504 8.24424 8.13069 8.03929L1.45302 12.4816ZM2.27134 1.61401C2.33053 1.66879 2.35352 1.69178 2.37846 1.71184C4.75272 3.69088 7.12845 5.66927 9.50565 7.647C9.99038 8.04956 10.5245 8.04663 11.0127 7.64064C13.3798 5.67204 15.746 3.70311 18.1115 1.73385C18.154 1.70726 18.1997 1.68622 18.2475 1.67124L18.1946 1.61548L2.27134 1.61401ZM1.43981 2.45777V11.0812L7.19497 7.25031L1.43981 2.45777ZM19.0707 11.0817V2.45679L13.3145 7.25031L19.0707 11.0817Z" fill="white"/>
</svg>
